<svg width="48" height="48" viewBox="0 0 48 48" fill="none" xmlns="http://www.w3.org/2000/svg">
<path d="M23.4061 11.232C23.4661 9.422 23.9621 6.758 25.6961 5.008C27.3061 3.382 29.2661 2.59 30.4861 2.228C30.5936 2.19435 30.7076 2.18736 30.8183 2.20761C30.9291 2.22786 31.0332 2.27476 31.1218 2.34425C31.2104 2.41374 31.2808 2.50374 31.3268 2.60648C31.3728 2.70923 31.3932 2.82163 31.3861 2.934C31.3061 4.666 30.8501 7.25 29.6741 8.634C28.5661 9.938 26.7861 11.666 24.1761 11.958C24.0761 11.9688 23.975 11.9578 23.8796 11.9258C23.7843 11.8938 23.697 11.8414 23.6238 11.7724C23.5506 11.7034 23.4933 11.6194 23.4557 11.5261C23.4181 11.4328 23.4012 11.3325 23.4061 11.232Z" fill="#A4A4A4"/>
<path d="M27.8739 44.34C29.1279 44.82 30.3939 45.304 31.5399 45.304C33.9939 45.304 41.1359 39.644 41.3919 33.768C41.3941 33.6199 41.355 33.4741 41.2791 33.3469C41.2032 33.2198 41.0933 33.1162 40.9619 33.048C39.1459 32.032 36.1779 29.5 36.0759 25.818C35.9559 21.526 38.1099 18.118 39.7399 16.708C40.1079 16.39 40.2339 15.83 39.9059 15.474C38.4219 13.854 35.4379 11.624 32.7139 11.678C30.7339 11.718 28.9479 12.458 27.4139 13.09C26.2399 13.576 25.2139 14 24.3619 14C23.5559 14 22.5879 13.58 21.4759 13.094C19.9799 12.442 18.2239 11.678 16.2559 11.678C12.6079 11.68 5.3999 14.704 5.3999 26.38C5.3999 32.572 11.7899 45.468 17.1839 45.304C18.3479 45.304 19.5919 44.824 20.8279 44.344C22.0439 43.872 23.2499 43.404 24.3619 43.404C25.4359 43.404 26.6479 43.87 27.8739 44.34Z" fill="#A4A4A4"/>
</svg>
