<svg width="48" height="48" viewBox="0 0 48 48" fill="none" xmlns="http://www.w3.org/2000/svg">
<path d="M43.6363 24.12C43.6363 13.2089 34.8447 4.36365 23.9999 4.36365C13.1551 4.36365 4.36353 13.2088 4.36353 24.12C4.36353 33.9809 11.5443 42.1543 20.9317 43.6364V29.8308H15.9459V24.12H20.9317V19.7674C20.9317 14.816 23.8634 12.081 28.3486 12.081C30.4971 12.081 32.7442 12.4668 32.7442 12.4668V17.3288H30.2682C27.8287 17.3288 27.0681 18.8517 27.0681 20.4142V24.12H32.5141L31.6435 29.8308H27.0681V43.6364C36.4555 42.1543 43.6363 33.9811 43.6363 24.12Z" fill="#1877F2"/>
<path d="M31.5835 30.143L32.4881 24.6567H26.8294V21.0965C26.8294 19.5953 27.6198 18.1324 30.1545 18.1324H32.7273V13.4616C32.7273 13.4616 30.3923 13.0909 28.1599 13.0909C23.4995 13.0909 20.4533 15.7184 20.4533 20.4752V24.6567H15.2727V30.143H20.4533V43.4058C21.5079 43.5596 22.5738 43.6367 23.6413 43.6364C24.7088 43.6367 25.7747 43.5596 26.8294 43.4058V30.143H31.5835Z" fill="white"/>
</svg>
