<svg width="48" height="48" viewBox="0 0 48 48" fill="none" xmlns="http://www.w3.org/2000/svg">
<path d="M17.843 5.43867C13.7906 6.81599 10.2959 9.4302 7.87205 12.8973C5.44823 16.3644 4.2231 20.5016 4.37662 24.7013C4.53014 28.901 6.05422 32.9418 8.72499 36.2301C11.3958 39.5185 15.0724 41.881 19.215 42.9708C22.5735 43.8198 26.0921 43.8571 29.4686 43.0795C32.5273 42.4063 35.3551 40.9665 37.6752 38.9009C40.0899 36.6855 41.8427 33.8671 42.745 30.7488C43.7254 27.3577 43.8999 23.7917 43.2551 20.3242H24.3956V27.989H35.3178C35.0995 29.2115 34.6317 30.3782 33.9425 31.4195C33.2532 32.4607 32.3566 33.355 31.3063 34.0488C29.9728 34.9135 28.4693 35.4951 26.8925 35.7562C25.3112 36.0443 23.6892 36.0443 22.1079 35.7562C20.5051 35.4319 18.9889 34.7838 17.6561 33.8532C15.5146 32.368 13.9066 30.2581 13.0616 27.8245C12.2026 25.3452 12.2026 22.6576 13.0616 20.1783C13.6631 18.4405 14.6574 16.8583 15.9704 15.5497C17.4729 14.0246 19.3751 12.9345 21.4684 12.399C23.5616 11.8634 25.765 11.903 27.8367 12.5136C29.4552 13.0001 30.9353 13.8506 32.1587 14.9971C33.3902 13.7967 34.6196 12.5933 35.8469 11.3867C36.4807 10.7379 37.1714 10.1201 37.7956 9.45576C35.9278 7.75305 33.7356 6.42806 31.3444 5.55664C26.9898 4.00751 22.2251 3.96588 17.843 5.43867Z" fill="white"/>
<path d="M17.6239 5.40401C21.8997 3.97974 26.5491 4.01891 30.7987 5.51501C33.1325 6.36286 35.2708 7.6495 37.0909 9.30111C36.4725 9.94312 35.8201 10.5431 35.1893 11.1672C33.9896 12.3292 32.791 13.4872 31.5934 14.6412C30.3995 13.5333 28.9553 12.7114 27.3759 12.2412C25.3549 11.6491 23.2049 11.6085 21.1618 12.124C19.1186 12.6395 17.2612 13.691 15.7935 15.1633C14.5123 16.4279 13.542 17.957 12.955 19.6364L6.54541 14.8212C8.83967 10.4068 12.812 7.03012 17.6239 5.40401Z" fill="#E33629"/>
<path d="M4.75771 20.1587C5.11144 18.4618 5.69915 16.8184 6.50507 15.2727L13.091 20.2171C12.2297 22.6713 12.2297 25.3318 13.091 27.7859C10.8968 29.4248 8.70146 31.0719 6.50507 32.7273C4.48814 28.844 3.87301 24.4194 4.75771 20.1587Z" fill="#F8BD00"/>
<path d="M24.0014 19.6364H43.2472C43.9051 23.3016 43.7271 27.071 42.7266 30.6556C41.8058 33.9517 40.0172 36.9309 37.553 39.2727C35.3898 37.5598 33.2169 35.86 31.0537 34.147C32.1261 33.4129 33.0415 32.4666 33.7449 31.3648C34.4484 30.263 34.9253 29.0284 35.1473 27.735H24.0014C23.9982 25.0377 24.0014 22.337 24.0014 19.6364Z" fill="#587DBD"/>
<path d="M6.54541 33.19C8.69015 31.5892 10.8339 29.9804 12.9765 28.3636C13.8055 30.7174 15.3821 32.7575 17.4811 34.1925C18.7901 35.0881 20.2778 35.7096 21.8492 36.0174C23.3974 36.296 24.9854 36.296 26.5337 36.0174C28.0775 35.765 29.5495 35.2026 30.8552 34.3666C32.9307 35.9334 35.0154 37.4882 37.0909 39.0549C34.8196 41.0531 32.0509 42.4462 29.0559 43.0979C25.75 43.8498 22.305 43.8138 19.0167 42.9929C16.4161 42.3211 13.9869 41.1367 11.8814 39.5142C9.65309 37.8022 7.83298 35.645 6.54541 33.19Z" fill="#319F43"/>
</svg>
